<svg width="600" height="220" viewBox="0 0 600 220" fill="none" xmlns="http://www.w3.org/2000/svg">
<g clip-path="url(#clip0_1729_11475)">
<rect width="626" height="352.125" transform="translate(-13 -66.0625)" fill="url(#paint0_radial_1729_11475)"/>
<rect x="-13" y="-66.0625" width="626" height="352.125" fill="url(#paint1_radial_1729_11475)"/>
<circle opacity="0.4" cx="72.0968" cy="15.7736" r="224.643" fill="url(#paint2_radial_1729_11475)"/>
<path d="M-34.8115 -136.161C-34.8115 -136.161 -43.1333 -76.1663 -12.0314 -109.761C19.0704 -143.356 10.4084 -51.6359 68.3218 -64.666C126.235 -77.696 143.235 17.2533 89.0618 -12.5458C34.8884 -42.3449 18.5684 -1.21535 54.6084 23.825C90.6484 48.8653 198.995 37.0817 195.142 80.8173C191.288 124.553 238.208 149.366 210.952 171.234C183.695 193.102 74.3284 179.052 74.3284 179.052C74.3284 179.052 129.068 281.027 210.952 223.666C292.835 166.306 237.188 292.584 237.188 292.584H-34.8115V-136.161Z" fill="#070047"/>
<path d="M618.835 318.667C618.835 318.667 627.157 258.672 596.055 292.267C564.953 325.862 573.615 234.142 515.702 247.172C457.789 260.202 440.789 165.253 494.962 195.052C549.135 224.851 565.455 183.721 529.416 158.681C493.376 133.641 385.029 145.424 388.882 101.689C392.736 57.9529 345.815 33.1393 373.072 11.2716C400.329 -10.5962 509.696 3.45354 509.696 3.45354C509.696 3.45354 454.955 -98.5207 373.072 -41.1602C291.189 16.2003 346.835 -110.078 346.835 -110.078L618.836 -110.078L618.835 318.667Z" fill="#050030"/>
<circle r="39.3134" transform="matrix(1 0 0 -1 527.113 151.407)" fill="url(#paint3_radial_1729_11475)"/>
<circle cx="467.26" cy="265.521" r="142.48" fill="url(#paint4_radial_1729_11475)"/>
<path d="M329.38 265.916C328.894 287.352 333.251 308.622 342.128 328.139C351.005 347.657 364.173 364.919 380.65 378.64C397.126 392.361 416.487 402.186 437.29 407.383C458.092 412.58 479.799 413.015 500.793 408.655C521.786 404.296 541.525 395.254 558.539 382.205C575.552 369.155 589.401 352.434 599.052 333.288C608.704 314.141 613.91 293.064 614.283 271.625C614.655 250.187 610.184 228.941 601.203 209.471C601.203 209.471 562.953 207.366 536.513 239.311C510.074 271.256 495.788 276.976 471.824 269.151C447.86 261.326 443.621 281.867 404.822 282.193C366.023 282.519 329.38 265.916 329.38 265.916Z" fill="#06003D"/>
<path opacity="0.2" d="M-57.9938 54.5732C-57.9938 54.5732 -82.9218 92.6688 10.2446 71.3367C103.411 50.0047 51.3805 134.328 224.861 126.055C398.342 117.781 319.468 203.085 286.989 159.15C254.509 115.215 106.399 225.745 240.892 202.922C375.384 180.099 464.85 237.588 453.308 265.359C441.765 293.13 525.99 299.402 444.341 313.287C362.693 327.173 324.684 260.795 286.989 290.138C249.293 319.482 406.83 345.563 652.113 309.14C897.397 272.717 730.706 352.901 730.706 352.901H-84.0771L-57.9938 54.5732Z" fill="#0A015B"/>
<path d="M-77.5563 44.792C-77.5563 44.792 -102.484 82.8876 -9.31786 61.5555C83.8486 40.2234 31.818 124.547 205.299 116.273C378.78 108 299.905 193.304 267.426 149.369C234.947 105.433 86.8368 215.964 221.329 193.141C355.821 170.318 445.288 227.807 433.745 255.578C422.202 283.349 506.427 289.62 424.779 303.506C343.131 317.392 305.122 251.013 267.426 280.357C229.73 309.701 387.267 335.782 632.551 299.359C877.834 262.936 711.143 343.12 711.143 343.12H-103.64L-77.5563 44.792Z" fill="#0A015B"/>
<path opacity="0.2" fill-rule="evenodd" clip-rule="evenodd" d="M-77.5563 44.792C-77.5563 44.792 -83.3414 53.6329 -78.922 60.4118L-77.5563 44.792ZM106.657 106.576C98.6692 135.593 151.977 161.841 170.561 139.833C185.429 122.227 228.666 116.791 248.427 116.273C236.187 115.547 221.898 115.482 205.299 116.273C158.353 118.512 127.921 113.97 106.657 106.576Z" fill="#1D1187"/>
<g filter="url(#filter0_f_1729_11475)">
<circle cx="193.447" cy="69.326" r="28.4471" fill="white"/>
</g>
<circle cx="193.447" cy="69.326" r="28.4471" fill="white"/>
<g filter="url(#filter1_f_1729_11475)">
<circle cx="99.2396" cy="69.3261" r="4.15711" fill="white"/>
</g>
<circle cx="99.2396" cy="69.3261" r="4.15711" fill="white"/>
<g filter="url(#filter2_f_1729_11475)">
<circle cx="24.4134" cy="69.326" r="1.3856" fill="white"/>
</g>
<circle cx="24.4134" cy="69.326" r="1.3856" fill="white"/>
<circle cx="361.306" cy="148.046" r="14.229" fill="url(#paint5_radial_1729_11475)"/>
<ellipse cx="370.126" cy="139.602" rx="3.0974" ry="1.63021" transform="rotate(45 370.126 139.602)" fill="#050030"/>
<ellipse cx="370.126" cy="139.602" rx="4.40156" ry="1.63021" transform="rotate(45 370.126 139.602)" fill="#050030"/>
<circle cx="374.456" cy="135.337" r="3.05124" transform="rotate(45 374.456 135.337)" fill="url(#paint6_radial_1729_11475)"/>
<circle cx="393.526" cy="116.202" r="1.14115" transform="rotate(45 393.526 116.202)" fill="white"/>
<g filter="url(#filter3_f_1729_11475)">
<circle cx="393.526" cy="116.202" r="1.14115" transform="rotate(45 393.526 116.202)" fill="white"/>
</g>
<path opacity="0.3" d="M651.44 351.271C651.44 351.271 659.762 291.276 628.66 324.871C597.558 358.465 606.22 266.745 548.307 279.775C490.393 292.805 473.393 197.856 527.567 227.655C581.74 257.454 598.06 216.325 562.02 191.284C525.98 166.244 417.633 178.028 421.487 134.292C425.34 90.5564 378.42 65.7429 405.677 43.8751C432.933 22.0073 542.3 36.0571 542.3 36.0571C542.3 36.0571 487.56 -65.9172 405.677 -8.55669C323.793 48.8038 379.44 -77.4743 379.44 -77.4743L651.44 -77.4743L651.44 351.271Z" fill="#050030"/>
<path opacity="0.3" d="M-29.9209 57.5068C-29.9209 57.5068 -38.2427 117.502 -7.1408 83.9068C23.9611 50.312 15.2991 142.032 73.2124 129.002C131.126 115.972 148.126 210.921 93.9524 181.122C39.7791 151.323 23.4591 192.453 59.4991 217.493C95.5391 242.533 203.886 230.75 200.032 274.485C196.179 318.221 243.099 343.034 215.842 364.902C188.586 386.77 79.2191 372.72 79.2191 372.72C79.2191 372.72 133.959 474.695 215.842 417.334C297.726 359.973 242.079 486.252 242.079 486.252H-29.9209V57.5068Z" fill="#06003C"/>
<path d="M-53.0699 36.6406C-53.0699 36.6406 -61.3916 96.6355 -30.2897 63.0406C0.81213 29.4458 -7.84986 121.166 50.0635 108.136C107.977 95.1057 124.977 190.055 70.8035 160.256C16.6301 130.457 0.310139 171.586 36.3501 196.627C72.3901 221.667 180.737 209.883 176.883 253.619C173.03 297.355 219.95 322.168 192.693 344.036C165.437 365.904 56.0701 351.854 56.0701 351.854C56.0701 351.854 110.81 453.828 192.693 396.468C274.577 339.107 218.93 465.385 218.93 465.385H-53.0699V36.6406Z" fill="#0A015A"/>
<path opacity="0.3" fill-rule="evenodd" clip-rule="evenodd" d="M-53.0699 36.6406C-53.0699 36.6406 -55.3451 53.0436 -53.0699 63.8932V36.6406ZM61.9898 106.915C22.5387 109.7 36.3501 141.137 50.0635 128.258C61.0341 117.955 83.9955 120.852 94.1049 123.589C86.9944 114.412 76.0864 107.293 61.9898 106.915Z" fill="#0D007C"/>
<ellipse cx="381.687" cy="168.427" rx="12.3896" ry="18.5844" transform="rotate(45 381.687 168.427)" fill="#0A015B"/>
<g filter="url(#filter4_f_1729_11475)">
<circle r="1.54878" transform="matrix(-1 2.18557e-08 2.18557e-08 1 568.74 69.3261)" fill="white"/>
</g>
<circle r="1.54878" transform="matrix(-1 2.18557e-08 2.18557e-08 1 568.74 69.3261)" fill="white"/>
<g filter="url(#filter5_f_1729_11475)">
<circle cx="528.637" cy="69.3264" r="3.17899" fill="white"/>
</g>
<circle cx="528.637" cy="69.3264" r="3.17899" fill="white"/>
<g filter="url(#filter6_f_1729_11475)">
<circle cx="335.294" cy="69.3263" r="0.733512" fill="white"/>
</g>
<circle cx="335.294" cy="69.3263" r="0.733512" fill="white"/>
</g>
<defs>
<filter id="filter0_f_1729_11475" x="101.541" y="-22.5799" width="183.812" height="183.812" filterUnits="userSpaceOnUse" color-interpolation-filters="sRGB">
<feFlood flood-opacity="0" result="BackgroundImageFix"/>
<feBlend mode="normal" in="SourceGraphic" in2="BackgroundImageFix" result="shape"/>
<feGaussianBlur stdDeviation="31.7294" result="effect1_foregroundBlur_1729_11475"/>
</filter>
<filter id="filter1_f_1729_11475" x="85.809" y="55.8954" width="26.8616" height="26.8616" filterUnits="userSpaceOnUse" color-interpolation-filters="sRGB">
<feFlood flood-opacity="0" result="BackgroundImageFix"/>
<feBlend mode="normal" in="SourceGraphic" in2="BackgroundImageFix" result="shape"/>
<feGaussianBlur stdDeviation="4.63678" result="effect1_foregroundBlur_1729_11475"/>
</filter>
<filter id="filter2_f_1729_11475" x="19.9369" y="64.8495" width="8.95288" height="8.95337" filterUnits="userSpaceOnUse" color-interpolation-filters="sRGB">
<feFlood flood-opacity="0" result="BackgroundImageFix"/>
<feBlend mode="normal" in="SourceGraphic" in2="BackgroundImageFix" result="shape"/>
<feGaussianBlur stdDeviation="1.54547" result="effect1_foregroundBlur_1729_11475"/>
</filter>
<filter id="filter3_f_1729_11475" x="388.799" y="111.474" width="9.45514" height="9.45514" filterUnits="userSpaceOnUse" color-interpolation-filters="sRGB">
<feFlood flood-opacity="0" result="BackgroundImageFix"/>
<feBlend mode="normal" in="SourceGraphic" in2="BackgroundImageFix" result="shape"/>
<feGaussianBlur stdDeviation="1.79323" result="effect1_foregroundBlur_1729_11475"/>
</filter>
<filter id="filter4_f_1729_11475" x="563.736" y="64.3224" width="10.0076" height="10.0076" filterUnits="userSpaceOnUse" color-interpolation-filters="sRGB">
<feFlood flood-opacity="0" result="BackgroundImageFix"/>
<feBlend mode="normal" in="SourceGraphic" in2="BackgroundImageFix" result="shape"/>
<feGaussianBlur stdDeviation="1.72748" result="effect1_foregroundBlur_1729_11475"/>
</filter>
<filter id="filter5_f_1729_11475" x="518.366" y="59.0559" width="20.5411" height="20.5416" filterUnits="userSpaceOnUse" color-interpolation-filters="sRGB">
<feFlood flood-opacity="0" result="BackgroundImageFix"/>
<feBlend mode="normal" in="SourceGraphic" in2="BackgroundImageFix" result="shape"/>
<feGaussianBlur stdDeviation="3.54579" result="effect1_foregroundBlur_1729_11475"/>
</filter>
<filter id="filter6_f_1729_11475" x="332.924" y="66.9565" width="4.73939" height="4.73939" filterUnits="userSpaceOnUse" color-interpolation-filters="sRGB">
<feFlood flood-opacity="0" result="BackgroundImageFix"/>
<feBlend mode="normal" in="SourceGraphic" in2="BackgroundImageFix" result="shape"/>
<feGaussianBlur stdDeviation="0.818148" result="effect1_foregroundBlur_1729_11475"/>
</filter>
<radialGradient id="paint0_radial_1729_11475" cx="0" cy="0" r="1" gradientUnits="userSpaceOnUse" gradientTransform="translate(299.143 139.057) scale(445.047 63.4562)">
<stop stop-color="#070053"/>
<stop offset="1" stop-color="#06003D"/>
</radialGradient>
<radialGradient id="paint1_radial_1729_11475" cx="0" cy="0" r="1" gradientUnits="userSpaceOnUse" gradientTransform="translate(286.143 72.9943) scale(445.047 63.4562)">
<stop stop-color="#070053"/>
<stop offset="1" stop-color="#06003D"/>
</radialGradient>
<radialGradient id="paint2_radial_1729_11475" cx="0" cy="0" r="1" gradientUnits="userSpaceOnUse" gradientTransform="translate(122.959 31.7496) rotate(110.899) scale(357.378 298.341)">
<stop stop-color="#0A005A"/>
<stop offset="0.458333" stop-color="#0A005A"/>
<stop offset="0.463542" stop-color="#0A005A"/>
<stop offset="1" stop-color="#2E0A94"/>
</radialGradient>
<radialGradient id="paint3_radial_1729_11475" cx="0" cy="0" r="1" gradientUnits="userSpaceOnUse" gradientTransform="translate(48.2146 42.1093) rotate(110.899) scale(62.5426 56.9615)">
<stop offset="0.343345" stop-color="#20067D" stop-opacity="0"/>
<stop offset="1" stop-color="#21077F"/>
</radialGradient>
<radialGradient id="paint4_radial_1729_11475" cx="0" cy="0" r="1" gradientUnits="userSpaceOnUse" gradientTransform="translate(499.519 275.654) rotate(110.899) scale(226.668 189.224)">
<stop stop-color="#0A005A"/>
<stop offset="0.458333" stop-color="#0A005A"/>
<stop offset="0.463542" stop-color="#0A005A"/>
<stop offset="1" stop-color="#2E0A94"/>
</radialGradient>
<radialGradient id="paint5_radial_1729_11475" cx="0" cy="0" r="1" gradientUnits="userSpaceOnUse" gradientTransform="translate(361.296 177.98) rotate(-102.08) scale(45.1791)">
<stop offset="0.383918" stop-color="#0A015B"/>
<stop offset="0.670951" stop-color="#2D0994"/>
</radialGradient>
<radialGradient id="paint6_radial_1729_11475" cx="0" cy="0" r="1" gradientUnits="userSpaceOnUse" gradientTransform="translate(379.742 138.945) rotate(-137.67) scale(9.89514)">
<stop offset="0.383918" stop-color="#0A015B"/>
<stop offset="0.670951" stop-color="#2D0994"/>
<stop offset="0.882408" stop-color="#7250D5"/>
</radialGradient>
<clipPath id="clip0_1729_11475">
<rect width="626" height="352.125" fill="white" transform="translate(-13 -66.0625)"/>
</clipPath>
</defs>
</svg>
