<svg width="101" height="17" viewBox="0 0 101 17" fill="none" xmlns="http://www.w3.org/2000/svg">
<path d="M18.4229 5.47688H21.4976C21.8547 5.47688 22.2119 5.50186 22.5691 5.55182C22.934 5.59464 23.2601 5.68742 23.5474 5.83016C23.8347 5.96577 24.0676 6.15846 24.2462 6.40826C24.4248 6.65806 24.514 6.98993 24.514 7.40388C24.514 7.8321 24.382 8.18895 24.1181 8.47443C23.8618 8.75277 23.5202 8.95261 23.0932 9.07394V9.09535C23.3649 9.13104 23.6095 9.20241 23.8269 9.30946C24.0521 9.40938 24.2423 9.54141 24.3976 9.70556C24.5606 9.86258 24.6849 10.0481 24.7703 10.2623C24.8557 10.4764 24.8984 10.7047 24.8984 10.9474C24.8984 11.3471 24.8052 11.6825 24.6189 11.9537C24.4325 12.2178 24.1918 12.4319 23.8968 12.5961C23.6017 12.7602 23.2679 12.878 22.8952 12.9493C22.5302 13.0207 22.1653 13.0564 21.8004 13.0564H18.4229V5.47688ZM20.2397 8.50655H21.5558C21.6956 8.50655 21.8314 8.49227 21.9634 8.46372C22.1032 8.43517 22.2274 8.38878 22.3361 8.32455C22.4448 8.26032 22.5302 8.17467 22.5923 8.06762C22.6622 7.96056 22.6972 7.8321 22.6972 7.68222C22.6972 7.5252 22.6583 7.39674 22.5807 7.29682C22.5108 7.18976 22.4176 7.10769 22.3012 7.05059C22.1847 6.9935 22.0527 6.95424 21.9052 6.93283C21.7577 6.90428 21.614 6.89001 21.4743 6.89001H20.2397V8.50655ZM20.2397 11.6433H21.8703C22.01 11.6433 22.1498 11.629 22.2895 11.6004C22.4371 11.5719 22.5691 11.5219 22.6855 11.4506C22.802 11.3792 22.8952 11.2864 22.965 11.1722C23.0427 11.058 23.0815 10.9189 23.0815 10.7547C23.0815 10.5763 23.031 10.4335 22.9301 10.3265C22.8369 10.2123 22.7166 10.1266 22.5691 10.0696C22.4215 10.0125 22.2624 9.9732 22.0915 9.95179C21.9207 9.93038 21.7616 9.91968 21.614 9.91968H20.2397V11.6433Z" fill="white"/>
<path d="M34.0927 10.1338C34.0927 10.5834 34.0189 10.9974 33.8714 11.3756C33.7239 11.7539 33.5026 12.0822 33.2075 12.3605C32.9202 12.6389 32.5592 12.8566 32.1244 13.0136C31.6896 13.1706 31.1888 13.2491 30.622 13.2491C30.0474 13.2491 29.5427 13.1706 29.1079 13.0136C28.6731 12.8566 28.3082 12.6389 28.0131 12.3605C27.7258 12.0822 27.5084 11.7539 27.3609 11.3756C27.2134 10.9974 27.1396 10.5834 27.1396 10.1338V5.47688H28.9565V10.0696C28.9565 10.3051 28.9953 10.5228 29.073 10.7226C29.1584 10.9224 29.2748 11.0973 29.4224 11.2472C29.5699 11.3899 29.7446 11.5041 29.9465 11.5897C30.1561 11.6682 30.3813 11.7075 30.622 11.7075C30.8627 11.7075 31.084 11.6682 31.2858 11.5897C31.4877 11.5041 31.6624 11.3899 31.8099 11.2472C31.9575 11.0973 32.07 10.9224 32.1477 10.7226C32.2331 10.5228 32.2758 10.3051 32.2758 10.0696V5.47688H34.0927V10.1338Z" fill="white"/>
<path d="M36.9136 5.47688H38.7305V13.0564H36.9136V5.47688Z" fill="white"/>
<path d="M41.6177 5.47688H43.4345V11.5148H46.8004V13.0564H41.6177V5.47688Z" fill="white"/>
<path d="M48.968 5.47688H51.6933C52.3533 5.47688 52.9783 5.54468 53.5684 5.68028C54.1663 5.81589 54.6865 6.03714 55.129 6.34403C55.5716 6.64378 55.921 7.03632 56.1772 7.52164C56.4412 8.00695 56.5732 8.59576 56.5732 9.28805C56.5732 9.90183 56.4451 10.4442 56.1889 10.9153C55.9404 11.3792 55.6027 11.7717 55.1756 12.0929C54.7486 12.4069 54.2555 12.646 53.6965 12.8102C53.1375 12.9743 52.5513 13.0564 51.9379 13.0564H48.968V5.47688ZM50.7848 11.5148H51.7282C52.1475 11.5148 52.5357 11.4755 52.8929 11.397C53.2578 11.3185 53.5723 11.1901 53.8363 11.0116C54.1003 10.8261 54.306 10.587 54.4535 10.2944C54.6088 9.99461 54.6865 9.63063 54.6865 9.20241C54.6865 8.83128 54.6088 8.51011 54.4535 8.23891C54.306 7.96056 54.1041 7.73218 53.8479 7.55375C53.5917 7.37533 53.2889 7.24329 52.9395 7.15765C52.5978 7.06487 52.2368 7.01848 51.8563 7.01848H50.7848V11.5148Z" fill="white"/>
<path d="M63.0463 7.32894C62.8988 7.15765 62.6969 7.03275 62.4407 6.95424C62.1922 6.8686 61.9554 6.82578 61.7302 6.82578C61.5982 6.82578 61.4624 6.84005 61.3226 6.8686C61.1828 6.89715 61.0508 6.94354 60.9266 7.00777C60.8024 7.06487 60.7014 7.14337 60.6238 7.24329C60.5462 7.34321 60.5073 7.46454 60.5073 7.60728C60.5073 7.83567 60.6005 8.01052 60.7868 8.13185C60.9732 8.25318 61.2061 8.35667 61.4856 8.44231C61.7729 8.52796 62.0796 8.6136 62.4057 8.69925C62.7318 8.78489 63.0347 8.90622 63.3142 9.06323C63.6015 9.22025 63.8383 9.43079 64.0246 9.69486C64.211 9.95893 64.3041 10.3122 64.3041 10.7547C64.3041 11.1758 64.2187 11.5433 64.0479 11.8574C63.8771 12.1714 63.6442 12.4319 63.3491 12.6389C63.0618 12.8459 62.7241 12.9993 62.3359 13.0992C61.9554 13.1991 61.5516 13.2491 61.1246 13.2491C60.5889 13.2491 60.0919 13.1742 59.6338 13.0243C59.1757 12.8744 58.7487 12.6317 58.3527 12.2963L59.6455 10.9902C59.8318 11.2186 60.0648 11.397 60.3443 11.5255C60.6316 11.6468 60.9266 11.7075 61.2294 11.7075C61.3769 11.7075 61.5245 11.6932 61.672 11.6647C61.8273 11.629 61.9632 11.579 62.0796 11.5148C62.2039 11.4506 62.3009 11.3685 62.3708 11.2686C62.4484 11.1687 62.4873 11.0509 62.4873 10.9153C62.4873 10.6869 62.3902 10.5085 62.1961 10.38C62.0097 10.2444 61.7729 10.1302 61.4856 10.0374C61.1984 9.94466 60.8878 9.85187 60.5539 9.75909C60.22 9.66631 59.9095 9.54141 59.6222 9.3844C59.3349 9.22738 59.0942 9.02041 58.9001 8.76348C58.7137 8.50655 58.6206 8.16754 58.6206 7.74645C58.6206 7.33964 58.706 6.98279 58.8768 6.6759C59.0554 6.36901 59.2883 6.11207 59.5756 5.9051C59.8706 5.69813 60.2084 5.54468 60.5889 5.44476C60.9693 5.33771 61.3614 5.28418 61.7652 5.28418C62.231 5.28418 62.6814 5.34484 63.1162 5.46617C63.551 5.5875 63.9431 5.79091 64.2925 6.07639L63.0463 7.32894Z" fill="white"/>
<path d="M68.4179 6.95424H66.0653V5.47688H72.5874V6.95424H70.2348V13.0564H68.4179V6.95424Z" fill="white"/>
<path d="M74.2322 9.26664C74.2322 8.65999 74.3409 8.11044 74.5583 7.61799C74.7834 7.12553 75.094 6.70802 75.49 6.36544C75.886 6.01572 76.3557 5.74809 76.8992 5.56252C77.4428 5.37696 78.0367 5.28418 78.6812 5.28418C79.3256 5.28418 79.9196 5.37696 80.4631 5.56252C81.0066 5.74809 81.4764 6.01572 81.8724 6.36544C82.2683 6.70802 82.575 7.12553 82.7924 7.61799C83.0176 8.11044 83.1302 8.65999 83.1302 9.26664C83.1302 9.87328 83.0176 10.4228 82.7924 10.9153C82.575 11.4077 82.2683 11.8288 81.8724 12.1785C81.4764 12.5211 81.0066 12.7852 80.4631 12.9708C79.9196 13.1563 79.3256 13.2491 78.6812 13.2491C78.0367 13.2491 77.4428 13.1563 76.8992 12.9708C76.3557 12.7852 75.886 12.5211 75.49 12.1785C75.094 11.8288 74.7834 11.4077 74.5583 10.9153C74.3409 10.4228 74.2322 9.87328 74.2322 9.26664ZM76.1189 9.26664C76.1189 9.62349 76.1772 9.95179 76.2936 10.2515C76.4179 10.5442 76.5925 10.8011 76.8177 11.0223C77.0429 11.2365 77.3108 11.4042 77.6213 11.5255C77.9397 11.6468 78.293 11.7075 78.6812 11.7075C79.0694 11.7075 79.4188 11.6468 79.7294 11.5255C80.0477 11.4042 80.3195 11.2365 80.5446 11.0223C80.7698 10.8011 80.9406 10.5442 81.0571 10.2515C81.1813 9.95179 81.2434 9.62349 81.2434 9.26664C81.2434 8.91692 81.1813 8.59219 81.0571 8.29243C80.9406 7.99268 80.7698 7.73575 80.5446 7.52164C80.3195 7.30039 80.0477 7.1291 79.7294 7.00777C79.4188 6.88644 79.0694 6.82578 78.6812 6.82578C78.293 6.82578 77.9397 6.88644 77.6213 7.00777C77.3108 7.1291 77.0429 7.30039 76.8177 7.52164C76.5925 7.73575 76.4179 7.99268 76.2936 8.29243C76.1772 8.59219 76.1189 8.91692 76.1189 9.26664Z" fill="white"/>
<path d="M85.5298 5.47688H88.7209C89.1402 5.47688 89.5362 5.51613 89.9089 5.59464C90.2894 5.66601 90.6193 5.79091 90.8989 5.96933C91.1861 6.14062 91.4113 6.37614 91.5744 6.6759C91.7452 6.96852 91.8306 7.33607 91.8306 7.77857C91.8306 8.31385 91.6792 8.77061 91.3764 9.14888C91.0736 9.52 90.631 9.75552 90.0487 9.85544L92.1451 13.0564H89.9671L88.2434 10.0267H87.3466V13.0564H85.5298V5.47688ZM87.3466 8.6136H88.4181C88.5812 8.6136 88.752 8.61003 88.9306 8.6029C89.1169 8.58862 89.2839 8.5565 89.4314 8.50655C89.5789 8.44945 89.6993 8.3638 89.7924 8.24961C89.8934 8.13542 89.9438 7.97484 89.9438 7.76786C89.9438 7.57516 89.9011 7.42172 89.8157 7.30753C89.7303 7.19333 89.6216 7.10769 89.4896 7.05059C89.3576 6.98636 89.2062 6.94354 89.0354 6.92213C88.8646 6.90071 88.6976 6.89001 88.5346 6.89001H87.3466V8.6136Z" fill="white"/>
<path d="M94.3164 5.47688H99.9185V7.01848H96.1333V8.43161H99.7088V9.9732H96.1333V11.5148H100.128V13.0564H94.3164V5.47688Z" fill="white"/>
<path opacity="0.45" fill-rule="evenodd" clip-rule="evenodd" d="M1.45312 2.83301H9.08493L10.8807 4.58354V8.08461L3.69778 15.0867H1.45312V2.83301Z" fill="white"/>
<path opacity="0.8" fill-rule="evenodd" clip-rule="evenodd" d="M3.69778 2.83301L10.8807 9.83512V13.3362L9.08493 15.0867H1.45312V2.83301H3.69778Z" fill="url(#paint0_linear_1729_11523)"/>
<defs>
<linearGradient id="paint0_linear_1729_11523" x1="6.16689" y1="2.83301" x2="6.16689" y2="15.0867" gradientUnits="userSpaceOnUse">
<stop stop-color="#FFD50B"/>
<stop offset="1" stop-color="#FFBA08"/>
</linearGradient>
</defs>
</svg>
