<svg width="16" height="16" viewBox="0 0 16 16" fill="none" xmlns="http://www.w3.org/2000/svg">
<path fill-rule="evenodd" clip-rule="evenodd" d="M8 16C12.4183 16 16 12.4183 16 8C16 3.58172 12.4183 0 8 0C3.58172 0 0 3.58172 0 8C0 12.4183 3.58172 16 8 16ZM9.81507 10.825C10.0719 11.1417 10.3801 11.5 10.3801 11.5C12.2723 11.4417 13 10.2333 13 10.2333C13 7.55004 11.7671 5.37506 11.7671 5.37506C10.5342 4.47507 9.3613 4.50007 9.3613 4.50007L9.24144 4.6334C10.6969 5.06673 11.3733 5.69172 11.3733 5.69172C10.4829 5.21673 9.60959 4.9834 8.79623 4.89173C8.17979 4.82507 7.58904 4.84173 7.06678 4.9084C7.02194 4.9084 6.98362 4.91475 6.94043 4.92191C6.93414 4.92295 6.92776 4.92401 6.92123 4.92507C6.62158 4.95006 5.89384 5.0584 4.97774 5.45006C4.66096 5.59173 4.4726 5.69172 4.4726 5.69172C4.4726 5.69172 5.18322 5.0334 6.72432 4.60007L6.6387 4.50007C6.6387 4.50007 5.46575 4.47507 4.23288 5.37506C4.23288 5.37506 3 7.55004 3 10.2333C3 10.2333 3.71918 11.4417 5.6113 11.5C5.6113 11.5 5.92808 11.125 6.18493 10.8083C5.0976 10.4917 4.68664 9.82502 4.68664 9.82502C4.68664 9.82502 4.77226 9.88335 4.92637 9.96668C4.93493 9.97501 4.94349 9.98335 4.96062 9.99168C4.97346 10 4.9863 10.0063 4.99914 10.0125C5.01199 10.0188 5.02483 10.025 5.03767 10.0333C5.25171 10.15 5.46575 10.2417 5.66267 10.3167C6.0137 10.45 6.43322 10.5833 6.92123 10.675C7.56336 10.7917 8.31678 10.8333 9.1387 10.6833C9.5411 10.6167 9.95205 10.5 10.3801 10.325C10.6798 10.2167 11.0137 10.0583 11.3647 9.83335C11.3647 9.83335 10.9366 10.5167 9.81507 10.825Z" fill="white"/>
<path d="M6.39935 7.60834C5.91134 7.60834 5.52606 8.025 5.52606 8.53333C5.52606 9.04166 5.9199 9.45832 6.39935 9.45832C6.88736 9.45832 7.27264 9.04166 7.27264 8.53333C7.2812 8.025 6.88736 7.60834 6.39935 7.60834ZM9.52435 7.60834C9.03634 7.60834 8.65106 8.025 8.65106 8.53333C8.65106 9.04166 9.0449 9.45832 9.52435 9.45832C10.0124 9.45832 10.3976 9.04166 10.3976 8.53333C10.3976 8.025 10.0124 7.60834 9.52435 7.60834Z" fill="white"/>
</svg>
